<?xml version="1.0" encoding="utf-8"?>
<!-- Generator: Adobe Illustrator 24.0.0, SVG Export Plug-In . SVG Version: 6.00 Build 0)  -->
<svg version="1.1" id="Capa_1" xmlns="http://www.w3.org/2000/svg" xmlns:xlink="http://www.w3.org/1999/xlink" x="0px" y="0px"
	 viewBox="0 0 51.3 50.5" style="enable-background:new 0 0 51.3 50.5;" xml:space="preserve">
<path d="M10.3,28.3c0-2.1,0-4,0-6.1c-0.2,0-0.4,0-0.7,0c-1.8,0-3.7,0-5.5,0c-1.5,0-2.7-0.9-3-2.2c-0.4-1.3,0.1-2.7,1.3-3.4
	c0.5-0.3,1.2-0.5,1.8-0.5c2.3-0.1,4.7,0,7,0c0.3,0,0.5,0,0.8,0c1.3-3.1,3-5.8,5.3-8.1c8.3-8.4,21.5-9.7,31.3-3.1
	c1.1,0.7,1.7,1.7,1.6,3c-0.3,2.4-2.8,3.5-4.8,2.2c-1.8-1.2-3.6-2.1-5.6-2.6c-7.8-2.2-16.3,1.1-20.5,8c-0.1,0.1-0.2,0.3-0.3,0.6
	c0.3,0,0.6,0,0.8,0c5,0,10,0,15.1,0c1.3,0,2.3,0.6,2.9,1.8c0.5,1.2,0.3,2.3-0.5,3.3c-0.7,0.8-1.6,1-2.7,1c-5.6,0-11.3,0-16.9,0
	c-0.7,0-1,0.2-1,0.9c0,1.5,0,3,0,4.5c0,0.6,0.2,0.8,0.8,0.8c5.7,0,11.3,0,17,0c0.5,0,1,0,1.5,0.2c1.4,0.5,2.2,1.9,2,3.4
	c-0.2,1.4-1.5,2.5-3.1,2.5c-3.8,0-7.5,0-11.3,0c-1.5,0-3,0-4.5,0c0.1,0.2,0.1,0.3,0.2,0.4c3.2,5,7.8,8,13.7,8.7
	c4.5,0.5,8.6-0.6,12.4-3.1c1.6-1.1,3.5-0.8,4.4,0.7c1,1.5,0.6,3.3-1,4.4c-12.7,8.6-30.2,3.6-36.3-10.5c-0.2-0.5-0.4-0.7-1-0.7
	c-2.3,0-4.7,0-7,0c-1.9,0-3.3-1.3-3.3-3c0-1.8,1.4-3.1,3.3-3.1C6.3,28.3,8.3,28.3,10.3,28.3z"/>
</svg>
