<?xml version="1.0" encoding="utf-8"?>
<!-- Generator: Adobe Illustrator 24.0.0, SVG Export Plug-In . SVG Version: 6.00 Build 0)  -->
<svg version="1.1" id="Capa_1" xmlns="http://www.w3.org/2000/svg" xmlns:xlink="http://www.w3.org/1999/xlink" x="0px" y="0px"
	 viewBox="0 0 80 47" style="enable-background:new 0 0 80 47;" xml:space="preserve">
<style type="text/css">
	.st0{fill:#FFFFFF;}
</style>
<path class="st0" d="M40,16.1c-0.7,0.7-1.2,1.1-1.6,1.5c-8.8,8.8-17.7,17.7-26.5,26.5c-2,2-4.3,2.8-7,1.9c-2.6-0.8-4.1-2.7-4.5-5.3
	c-0.4-2.1,0.3-4,1.8-5.5c11-11,22-22.1,33-33C38-0.7,41.9-0.5,45,2.6C51.2,8.7,57.4,15,63.6,21.2c4.7,4.7,9.4,9.3,14,14
	c3.8,3.9,2.3,10-2.9,11.3c-2,0.5-3.9,0.1-5.5-1.1c-0.6-0.5-1.2-1-1.7-1.6C58.8,35.1,50,26.4,41.3,17.7C40.9,17.3,40.5,16.8,40,16.1z
	"/>
</svg>
