<?xml version="1.0" encoding="utf-8"?>
<!-- Generator: Adobe Illustrator 24.0.0, SVG Export Plug-In . SVG Version: 6.00 Build 0)  -->
<svg version="1.1" id="Capa_1" xmlns="http://www.w3.org/2000/svg" xmlns:xlink="http://www.w3.org/1999/xlink" x="0px" y="0px"
	 viewBox="0 0 28.2 47" style="enable-background:new 0 0 28.2 47;" xml:space="preserve">
<style type="text/css">
	.st0{fill:#3A3A3A;}
</style>
<path class="st0" d="M18.3,23.4c-0.4-0.4-0.6-0.7-0.9-0.9C12.4,17.4,7.2,12.3,2.1,7.2C1,6,0.5,4.7,1,3.1c0.5-1.5,1.6-2.4,3.1-2.6
	c1.2-0.2,2.3,0.2,3.2,1c6.4,6.4,12.8,12.7,19.1,19.1c1.7,1.6,1.6,3.9-0.2,5.7c-3.5,3.6-7.2,7.2-10.8,10.8c-2.7,2.7-5.4,5.4-8.1,8.1
	c-2.3,2.2-5.8,1.3-6.5-1.7c-0.3-1.2-0.1-2.3,0.6-3.2c0.3-0.3,0.6-0.7,0.9-1c5-5,10.1-10.1,15.1-15.2C17.6,23.9,17.9,23.7,18.3,23.4z
	"/>
</svg>
