<?xml version="1.0" encoding="utf-8"?>
<!-- Generator: Adobe Illustrator 24.0.0, SVG Export Plug-In . SVG Version: 6.00 Build 0)  -->
<svg version="1.1" id="Capa_1" xmlns="http://www.w3.org/2000/svg" xmlns:xlink="http://www.w3.org/1999/xlink" x="0px" y="0px"
	 viewBox="0 0 80 80" style="enable-background:new 0 0 80 80;" xml:space="preserve">
<style type="text/css">
	.st0{fill:#FFFFFF;}
</style>
<g>
	<g>
		<path class="st0" d="M29.6,57.3c-15.5,0-28.1-12.6-28.1-28.1S14.1,1.1,29.6,1.1c15.5,0,28.1,12.6,28.1,28.1S45.1,57.3,29.6,57.3z
			 M29.6,6.3C16.9,6.3,6.7,16.6,6.7,29.2s10.3,22.9,22.9,22.9c12.6,0,22.9-10.3,22.9-22.9S42.2,6.3,29.6,6.3z"/>
	</g>
	<g>
		<path class="st0" d="M75.9,78.9c-0.7,0-1.3-0.3-1.8-0.8L46.5,50.5c-1-1-1.1-2.5-0.3-3.6c1-1.2,2.8-1.3,3.8-0.2l27.6,27.6
			c1.1,1.1,1.2,2.9,0,3.9C77.1,78.7,76.5,78.9,75.9,78.9z"/>
	</g>
</g>
</svg>
